<svg xmlns="http://www.w3.org/2000/svg" xmlns:xlink="http://www.w3.org/1999/xlink" fill="none" version="1.1" width="16" height="16" viewBox="0 0 16 16"><defs><clipPath id="master_svg0_2_004644"><rect x="0" y="0" width="16" height="16" rx="4"/></clipPath><clipPath id="master_svg1_2_004644/2_004590"><rect x="2.39990234375" y="2.4000244140625" width="11.199999809265137" height="11.199999809265137" rx="0"/></clipPath></defs><g clip-path="url(#master_svg0_2_004644)"><rect x="0" y="0" width="16" height="16" rx="4" fill="#0FB5C1" fill-opacity="1"/><g clip-path="url(#master_svg1_2_004644/2_004590)"><path d="M7.980029762412643,2.4000244140625C9.555830662412642,2.4000244140625,10.861997862412643,3.5533155140624997,11.101111662412643,5.0613577140625L11.885652762412644,5.0613577140625C12.326523962412644,5.0612285140625,12.690876662412643,5.405188314062499,12.716112662412643,5.8453381140625L13.055462662412644,11.7828693140625C13.111788662412643,12.7692024140625,12.327046562412644,13.5999024140625,11.339105862412643,13.5997434140625L4.399199362412643,13.5997434140625C3.4114436824126435,13.5995704140625,2.6269780584126434,12.7690274140625,2.6831222561126435,11.7828693140625L3.0224737824126433,5.8456180140625005C3.0475662324126436,5.4053583140625,3.4119585424126435,5.0612371140625,3.852933062412643,5.0613580140625L4.859507762412644,5.0613580140625C5.093582162412643,3.5801948140624997,6.358309962412644,2.4414633740625,7.896032062412643,2.4011443812625L7.980029762412643,2.4000244140625ZM4.819748862412643,5.837498214062499L3.8523729624126437,5.837498214062499C3.828448462412643,5.8375034140625,3.8072260624126435,5.8528557140625,3.7997343624126434,5.8755772140625L3.7969344624126435,5.8898568140625L3.4578628824126434,11.8273878140625C3.4269641924126435,12.3681955140625,3.857230262412643,12.8236804140625,4.398919562412644,12.8236034140625L11.339105862412643,12.8236034140625C11.880795662412643,12.8236804140625,12.311061162412644,12.3681955140625,12.280162062412643,11.8273878140625L11.940811362412644,5.8898570140625C11.939181562412644,5.8605556140625,11.914999262412643,5.8376007140625,11.885652762412644,5.8374984140625L11.140311462412644,5.8374984140625L11.140311462412644,7.0019894140625C11.141696162412643,7.2110944140625,10.977152062412644,7.3836961140625,10.768219162412644,7.3923006140625C10.559287262412642,7.4009051140625,10.381106062412643,7.2424192140625,10.365290862412643,7.0339084140625L10.364170762412645,7.0019894140625L10.364170762412645,5.8374984140625L5.595889562412643,5.8374984140625L5.595889562412643,7.0019894140625C5.597271862412644,7.2110920140625,5.432727062412644,7.3836913140625,5.223796562412643,7.3922953140625C5.0148663624126435,7.4009003140625,4.836686362412643,7.2424168140625,4.820868962412643,7.0339084140625L4.819749062412644,7.0019894140625L4.819748862412643,5.837498214062499ZM8.685891862412642,6.8351130140625C8.716924362412644,6.8092322140625,8.761521062412644,6.8075785140625,8.794384662412643,6.8310904140625C8.827248762412644,6.8546023140625,8.840082862412643,6.8973441140625,8.825608462412642,6.9350710140625L8.090626962412642,8.819703614062501L9.260997062412644,9.467608014062499C9.400224462412645,9.5446458140625,9.415405962412644,9.7389068140625,9.289836162412644,9.8366370140625L6.9437753624126435,11.6649923140625C6.911049062412643,11.6903953140625,6.865102062412643,11.6897793140625,6.8330685624126435,11.6635084140625C6.801035162412643,11.6372375140625,6.791435462412643,11.5923014140625,6.809938662412644,11.5552349140625L7.789074162412644,9.6302829140625L6.608623462412643,8.9759393140625C6.472254962412643,8.9007501140625,6.453826162412644,8.712108114062499,6.573064562412643,8.611948514062501L8.685891862412642,6.8351130140625ZM7.980029762412643,3.1761649840625C6.855395062412644,3.1760413040625,5.883538262412643,3.9616713140625,5.647968262412643,5.0613577140625L10.311531262412643,5.0613577140625C10.075972762412643,3.9617656140625,9.104268762412644,3.1761651040625,7.979748962412644,3.1761649840625L7.980029762412643,3.1761649840625Z" fill="#FFFFFF" fill-opacity="1"/></g></g></svg>