<svg xmlns="http://www.w3.org/2000/svg" xmlns:xlink="http://www.w3.org/1999/xlink" fill="none" version="1.1" width="16" height="16" viewBox="0 0 16 16"><rect x="0" y="0" width="16" height="16" rx="4" fill="#000000" fill-opacity="1"/><path d="M6.296712403515625,7.9258242C5.442561623515625,7.9258242,4.748443603515625,8.652720500000001,4.748443603515625,9.5512168C4.748443603515625,10.1508579,5.056940553515625,10.673375100000001,5.515829563515625,10.956806199999999C5.289653773515625,10.6620655,5.167597773515625,10.3006449,5.168770313515625,9.929126C5.168770313515625,9.0306282,5.860960503515625,8.3037329,6.715111103515625,8.3037329C6.901130403515625,8.3037004,7.085523603515625,8.338356000000001,7.2588372035156254,8.4059229L7.2588372035156254,6.317783833C7.120453803515625,6.29413414,6.980704303515624,6.2793221474,6.840438603515625,6.2734375L6.840438603515625,8.0280142C6.667075203515625,7.9606209,6.482714603515625,7.9259710000000005,6.296712403515625,7.9258242Z" fill="#FF004F" fill-opacity="1"/><path d="M12.366497951757813,4.786631128125L12.366497951757813,6.462154828125L12.353001551757812,6.462154828125C11.412643451757813,6.461459628125,10.497902851757813,6.155643428125,9.746201551757814,5.590651028125L9.746201551757814,9.535556328125C9.746201551757814,11.548499128125,8.196004851757813,13.179675828125,6.281395151757812,13.179675828125C5.744660051757813,13.179969828125,5.215920031757813,13.049605828125,4.740838561757813,12.799838828125C4.567088631757812,12.709253828125,4.401321901757813,12.604118828125,4.2453155517578125,12.485557828125C4.871949731757812,13.146897828125,5.741525751757813,13.557585828125,6.701722851757813,13.557585828125C8.614403751757813,13.557585828125,10.166529651757813,11.926407828125,10.166529651757813,9.913464528125001L10.166529651757813,5.970488028125001C10.918035051757812,6.535856228125,11.832903851757813,6.841714828125,12.773329751757812,6.841991928125L12.786826151757813,6.841991928125L12.786826151757813,4.823265028125C12.645939851757813,4.822806328125,12.505339651757813,4.810552628125,12.366497951757813,4.786631128125ZM10.901136351757813,3.967186328125C10.442757651757812,3.452322928125,10.190752951757812,2.786262988125,10.193521451757812,2.096923828125L9.800188051757813,2.096923828125C9.902378051757813,2.872022388125,10.313064551757812,3.543003128125,10.901136351757813,3.967186328125Z" fill="#FF004F" fill-opacity="1"/><path d="M12.36631395,4.4450912C11.99365235,4.4451094,11.62582585,4.360733,11.29043195,4.1982937C11.59875675,4.4682531,11.96792505,4.6594529,12.36631395,4.7555160999999995L12.36631395,4.4450912ZM3.38905406,9.9131994C3.38905406,7.9060411,4.93346695,6.2787204,6.84036305,6.2690792L6.84036305,5.939373C6.655666849999999,5.907608,6.46862005,5.8914833,6.2812123500000006,5.8911705C4.36660335,5.8911705,2.81640625,7.5223479,2.81640625,9.535290700000001C2.81640625,10.7480688,3.37941313,11.822024,4.24513245,12.485292C4.40113835,12.603853,4.56690505,12.708989,4.74065555,12.799575C3.91928245,12.134377,3.3890533400000002,11.089344,3.38905406,9.9131994ZM6.86928515,11.5559454C7.72150805,11.5559454,8.41562605,10.8271217,8.41562605,9.9286242L8.41562605,2.09665871L9.80000635,2.09665871C9.78283265,1.9714291099999999,9.77445745,1.84515023,9.77494145,1.71875L7.84105065,1.71875L7.84105065,9.5507159C7.84105065,10.449213,7.14886045,11.1780367,6.29663825,11.1780367C6.12089705,11.1780615,5.9465622499999995,11.1467199,5.781833649999999,11.0854874C6.06453565,11.3846941,6.45764855,11.5547647,6.86928515,11.5559454Z" fill="#00F7EF" fill-opacity="1"/><path d="M3.389068841934205,9.913464528125001C3.389068841934205,11.089609128125,3.919298173515625,12.134642828125,4.740671203515625,12.799838828125C5.215752603515625,13.049605828125,5.744492103515626,13.179969828125,6.2812276035156245,13.179675828125C8.195837003515624,13.179675828125,9.746033703515625,11.548499128125,9.746033703515625,9.535556328125L9.746033703515625,5.592579328125C10.497735003515626,6.157573228125,11.412475603515626,6.463388428125,12.352832803515625,6.464083228125L12.366329203515624,6.464083228125L12.366329203515624,4.755781628125C11.967940303515626,4.6597185281249995,11.598772003515625,4.468518928125,11.290446803515625,4.198559328125C11.153801903515625,4.133538928125001,11.023427003515625,4.0560878281249995,10.900969003515625,3.967186328125C10.312896703515625,3.543003128125,9.902209803515625,2.872022388125,9.800019703515625,2.096923828125L8.415639903515626,2.096923828125L8.415639903515626,9.928889728125C8.415639903515626,10.827386828125,7.721521903515625,11.556210528125,6.8692989035156256,11.556210528125C6.457662303515625,11.555029828125,6.064549403515625,11.384959228125,5.781847003515625,11.085753428125C5.6892164035156245,11.051324828125,5.6001127035156255,11.008065228125,5.515768503515625,10.956569628125C5.056879403515625,10.673137628125,4.7483826035156245,10.150621428125,4.7483826035156245,9.550980528124999C4.7483826035156245,8.652482528124999,5.442500803515625,7.925587628125,6.296651603515625,7.925587628125C6.482653103515625,7.925735028125,6.6670144035156245,7.960384328125,6.840377603515625,8.027778128125L6.840377603515625,6.269345328125C4.933480703515625,6.278985928125,3.389068126678465,7.906307228125,3.389068841934205,9.913464528125001Z" fill="#FFFFFF" fill-opacity="1"/><path d="M6.399993896484375,16.0000248140625L11.999993796484375,16.0000248140625C14.209133196484375,16.0000248140625,15.999994296484376,14.2091637140625,15.999994296484376,12.0000243140625L15.999994296484376,6.4000244140625L6.399993896484375,16.0000248140625Z" fill="#0888FF" fill-opacity="1"/><path d="M14.523962224609376,14.74236014375L15.934072024609375,11.576542343749999C15.989436624609375,11.45215484375,15.966985424609375,11.284046643749999,15.883820024609374,11.20118024375C15.854147424609375,11.17155954375,15.819276124609376,11.15576334375,15.783609824609375,11.15578864375L14.674894224609375,11.15578864375L14.674894224609375,9.16276958375C14.674894224609375,9.01331072375,14.593962224609374,8.89208984375,14.494104824609375,8.89208984375C14.433626324609374,8.89208984375,14.377203024609376,8.93730575175,14.343642924609375,9.01260695375L12.933533240609375,12.17842484375C12.878167988609375,12.30281234375,12.900619672609375,12.47083284375,12.983726419609376,12.55378694375C13.013414814609375,12.58343574375,13.048304634609375,12.59926084375,13.083995134609374,12.59926674375L14.192710724609375,12.59926674375L14.192710724609375,14.59219794375C14.192710724609375,14.74165674375,14.273642824609375,14.86287734375,14.373500224609375,14.86287734375C14.433978724609375,14.86287734375,14.490460624609375,14.81766084375,14.523962224609376,14.74236014375Z" fill="#FFFFFF" fill-opacity="1" style="mix-blend-mode:passthrough" transform="matrix(0.9289497137069702,0.3702057898044586,-0.3702057898044586,0.9289497137069702,4.208676904538152,-4.145041869326633)"/></svg>