<svg xmlns="http://www.w3.org/2000/svg" xmlns:xlink="http://www.w3.org/1999/xlink" fill="none" version="1.1" width="16" height="16" viewBox="0 0 16 16"><defs><clipPath id="master_svg0_2_004564"><rect x="0" y="0" width="16" height="16" rx="4"/></clipPath></defs><g clip-path="url(#master_svg0_2_004564)"><rect x="0" y="0" width="16" height="16" rx="4" fill="#00BBA6" fill-opacity="1"/><path d="M13.599993896484374,6.4680629140625C13.599993896484374,7.1825070140625,13.004202896484376,7.7832045140625,12.201449396484374,7.9493737140625C12.058100696484376,7.9795861140625,11.906688696484375,7.9946933140625,11.752589196484376,7.9946933140625C11.546525996484375,7.9946933140625,11.348525096484375,7.9671459140625,11.162171396484375,7.9147181140625C10.590569496484376,7.7547684140625,10.144396296484375,7.3708911140625,9.975962196484375,6.8892670140625C9.959835096484376,6.8448367140625,9.948188296484375,6.7995181140625,9.937436596484375,6.7541995140625C9.925789796484375,6.7861891140625,9.914142096484376,6.8181786140625,9.899807896484376,6.8510570140625C9.620278396484375,7.4944072140625,8.873969596484375,7.9564829140625,8.000438696484375,7.9564829140625C7.126907796484375,7.9564829140625,6.381501396484375,7.4944072140625,6.100179396484375,6.8510570140625C6.087636696484375,6.8199558140625,6.074197496484375,6.7888546140625,6.064342296484375,6.7568650140625C6.054487196484375,6.8012953140625,6.041944296484375,6.8457255140625,6.025817196484375,6.8892670140625C5.860070896484375,7.3744464140625,5.409418796484375,7.7609892140625,4.835128096484375,7.9209380140625C4.651462596484375,7.9715886140625,4.453462396484375,8.0000243140625,4.248294796484375,8.0000243140625C4.092403396484375,8.0000243140625,3.942783196484375,7.9840288140625,3.797642696484375,7.9547057140625C2.995786606484375,7.7867584140625,2.399993896484375,7.1860614140625,2.399993896484375,6.4733939140625C2.399993896484375,6.2867870140625,2.440310705484375,6.108177214062501,2.515568666484375,5.9420078140624994L2.518256496484375,5.9366760140625L3.6650450964843753,3.3872655040625L3.665941196484375,3.3872655040625C3.928448596484375,2.8052286840625,4.516177696484375,2.4000244140625,5.200667396484375,2.4000244140625L10.800215696484376,2.4000244140625C11.483810396484374,2.4000244140625,12.071539896484374,2.8052286840625,12.333150896484375,3.3863770340625C12.338526696484376,3.3961517240625,12.343006096484375,3.4059261140625,12.347486496484375,3.4174781140625L13.484419896484376,5.9357877140625C13.558779896484374,6.1010682140625,13.599993896484374,6.2814548140625,13.599993896484374,6.4689512140625L13.599993896484374,6.4680629140625Z" fill="#FFFFFF" fill-opacity="1" style="mix-blend-mode:passthrough"/><path d="M12.80001260703125,10.0570141359375C12.80001260703125,10.0679832359375,12.80001260703125,10.0807802659375,12.79712580703125,10.0926630459375C12.79712580703125,10.1008900959375,12.79712580703125,10.1100307059375,12.79423620703125,10.1182571059375L12.79423620703125,10.1228277059375C12.57760710703125,12.0725535859375,10.51338150703125,13.5999755859375,7.99953080703125,13.5999755859375C5.48568080703125,13.5999755859375,3.42145441703125,12.0725535859375,3.20482610583125,10.1228277059375L3.20482610583125,10.1182571059375C3.20290077543125,10.1100307059375,3.20290077543125,10.1008900959375,3.20290077543125,10.0926630459375C3.20001220703125,10.0816939459375,3.20001220703125,10.0688969759375,3.20001220703125,10.0570141359375C3.20001220703125,9.8047290159375,3.41567754703125,9.5999755859375,3.68140837703125,9.5999755859375C3.92692035703125,9.5999755859375,4.12910669703125,9.7745643659375,4.15895330703125,10.0003412359375C4.15991592703125,10.0067397659375,4.15991592703125,10.0149667259375,4.16184156703125,10.0231931259375C4.32455350703125,11.5122241859375,5.9824817070312495,12.685899485937501,7.99953080703125,12.685899485937501C10.016580107031249,12.685899485937501,11.67547130703125,11.5122241859375,11.83722020703125,10.0231931259375C11.83818340703125,10.0149667259375,11.83818340703125,10.0067397659375,11.83914570703125,10.0003412359375C11.86899380703125,9.7754785859375,12.07117840703125,9.5999755859375,12.31669140703125,9.5999755859375C12.58242220703125,9.5999755859375,12.79808710703125,9.8047290159375,12.79808710703125,10.0570141359375L12.80001260703125,10.0570141359375Z" fill="#FFFFFF" fill-opacity="1" style="mix-blend-mode:passthrough"/></g></svg>