<svg xmlns="http://www.w3.org/2000/svg" xmlns:xlink="http://www.w3.org/1999/xlink" fill="none" version="1.1" width="16" height="16" viewBox="0 0 16 16"><rect x="0" y="0" width="16" height="16" rx="4" fill="#000000" fill-opacity="1"/><path d="M6.296706204632568,7.9258242C5.442555424632569,7.9258242,4.748437404632568,8.652720500000001,4.748437404632568,9.5512168C4.748437404632568,10.1508579,5.056934354632569,10.673375100000001,5.515823364632569,10.956806199999999C5.289647574632569,10.6620655,5.167591574632568,10.3006449,5.168764114632569,9.929126C5.168764114632569,9.0306282,5.8609543046325685,8.3037329,6.715104904632568,8.3037329C6.901124204632568,8.3037004,7.085517404632569,8.338356000000001,7.258831004632569,8.4059229L7.258831004632569,6.317783833C7.120447604632568,6.29413414,6.980698104632568,6.2793221474,6.840432404632568,6.2734375L6.840432404632568,8.0280142C6.667069004632569,7.9606209,6.482708404632568,7.9259710000000005,6.296706204632568,7.9258242Z" fill="#FF004F" fill-opacity="1"/><path d="M12.366495090734864,4.786582252316284L12.366495090734864,6.462105952316284L12.352998690734863,6.462105952316284C11.412640590734863,6.461410752316284,10.497899990734863,6.155594552316284,9.746198690734865,5.5906021523162845L9.746198690734865,9.535507452316285C9.746198690734865,11.548450252316284,8.196001990734864,13.179626952316283,6.281392290734863,13.179626952316283C5.744657190734864,13.179920952316284,5.215917170734864,13.049556952316284,4.740835700734864,12.799789952316285C4.567085770734863,12.709204952316284,4.4013190407348635,12.604069952316284,4.245312690734863,12.485508952316284C4.871946870734863,13.146848952316285,5.741522890734863,13.557536952316283,6.701719990734864,13.557536952316283C8.614400890734863,13.557536952316283,10.166526790734864,11.926358952316285,10.166526790734864,9.913415652316285L10.166526790734864,5.970439152316285C10.918032190734863,6.535807352316284,11.832900990734863,6.841665952316284,12.773326890734863,6.841943052316284L12.786823290734864,6.841943052316284L12.786823290734864,4.823216152316284C12.645936990734864,4.822757452316284,12.505336790734864,4.810503752316285,12.366495090734864,4.786582252316284ZM10.901133490734864,3.967137452316284C10.442754790734863,3.4522740523162843,10.190750090734863,2.786214112316284,10.193518590734863,2.096874952316284L9.800185190734863,2.096874952316284C9.902375190734864,2.871973512316284,10.313061690734862,3.5429542523162842,10.901133490734864,3.967137452316284Z" fill="#FF004F" fill-opacity="1"/><path d="M12.36631395,4.4450912C11.99365235,4.4451094,11.62582585,4.360733,11.29043195,4.1982937C11.59875675,4.4682531,11.96792505,4.6594529,12.36631395,4.7555160999999995L12.36631395,4.4450912ZM3.38905406,9.9131994C3.38905406,7.9060411,4.93346695,6.2787204,6.84036305,6.2690792L6.84036305,5.939373C6.655666849999999,5.907608,6.46862005,5.8914833,6.2812123500000006,5.8911705C4.36660335,5.8911705,2.81640625,7.5223479,2.81640625,9.535290700000001C2.81640625,10.7480688,3.37941313,11.822024,4.24513245,12.485292C4.40113835,12.603853,4.56690505,12.708989,4.74065555,12.799575C3.91928245,12.134377,3.3890533400000002,11.089344,3.38905406,9.9131994ZM6.86928515,11.5559454C7.72150805,11.5559454,8.41562605,10.8271217,8.41562605,9.9286242L8.41562605,2.09665871L9.80000635,2.09665871C9.78283265,1.9714291099999999,9.77445745,1.84515023,9.77494145,1.71875L7.84105065,1.71875L7.84105065,9.5507159C7.84105065,10.449213,7.14886045,11.1780367,6.29663825,11.1780367C6.12089705,11.1780615,5.9465622499999995,11.1467199,5.781833649999999,11.0854874C6.06453565,11.3846941,6.45764855,11.5547647,6.86928515,11.5559454Z" fill="#00F7EF" fill-opacity="1"/><path d="M3.3890628814697275,9.913415652316285C3.3890628814697275,11.089560252316284,3.9192922130511474,12.134593952316283,4.740665243051147,12.799789952316285C5.215746643051148,13.049556952316284,5.744486143051148,13.179920952316284,6.281221643051147,13.179626952316283C8.195831043051147,13.179626952316283,9.746027743051147,11.548450252316284,9.746027743051147,9.535507452316285L9.746027743051147,5.592530452316284C10.497729043051148,6.157524352316284,11.412469643051148,6.463339552316284,12.352826843051147,6.464034352316284L12.366323243051147,6.464034352316284L12.366323243051147,4.755732752316284C11.967934343051148,4.659669652316284,11.598766043051148,4.468470052316285,11.290440843051147,4.198510452316285C11.153795943051147,4.133490052316285,11.023421043051147,4.056038952316284,10.900963043051147,3.967137452316284C10.312890743051147,3.5429542523162842,9.902203843051147,2.871973512316284,9.800013743051148,2.096874952316284L8.415633943051148,2.096874952316284L8.415633943051148,9.928840852316284C8.415633943051148,10.827337952316284,7.7215159430511475,11.556161652316284,6.869292943051148,11.556161652316284C6.4576563430511476,11.554980952316285,6.064543443051147,11.384910352316284,5.7818410430511475,11.085704552316285C5.689210443051147,11.051275952316285,5.600106743051148,11.008016352316284,5.515762543051148,10.956520752316283C5.056873443051147,10.673088752316284,4.748376643051147,10.150572552316284,4.748376643051147,9.550931652316283C4.748376643051147,8.652433652316283,5.442494843051147,7.925538752316284,6.296645643051147,7.925538752316284C6.482647143051148,7.925686152316284,6.667008443051147,7.960335452316285,6.840371643051148,8.027729252316284L6.840371643051148,6.269296452316284C4.933474743051147,6.278937052316284,3.3890621662139875,7.906258352316284,3.3890628814697275,9.913415652316285Z" fill="#FFFFFF" fill-opacity="1"/></svg>