<svg xmlns="http://www.w3.org/2000/svg" xmlns:xlink="http://www.w3.org/1999/xlink" fill="none" version="1.1" width="16" height="16" viewBox="0 0 16 16"><rect x="0" y="0" width="16" height="16" rx="4" fill="#EC6C33" fill-opacity="1"/><path d="M12.10418800703125,5.52756782435608L9.95111460703125,5.52756782435608C9.95111460703125,4.59097422435608,9.43625020703125,2.599975824356079,7.90335510703125,2.599975824356079C6.21834160703125,2.599975824356079,5.855595107031251,4.738237124356079,5.855595107031251,5.524621724356079L3.6937459370312498,5.524621724356079Q3.10867158303125,5.524621724356079,3.21691033603125,6.113674424356079L3.63231301703125,11.89228082435608Q3.61476078703125,13.164633824356079,4.72640190703125,13.19997682435608L11.07738260703125,13.19997682435608Q12.15099430703125,13.13223882435608,12.16854670703125,11.89228082435608L12.58394910703125,6.11662052435608Q12.68926140703125,5.506951324356079,12.10418800703125,5.52756782435608ZM7.90335510703125,3.130123614356079C9.24902680703125,3.1654669043560792,9.38944390703125,5.347906624356079,9.39822010703125,5.52756782435608L6.39093850703125,5.52756782435608C6.39678930703125,5.344961624356079,6.48747560703125,3.165466484356079,7.90335510703125,3.130123614356079ZM9.39236830703125,11.064665124356079C9.208288707031251,11.35932092435608,8.91776610703125,11.57051302435608,8.58204220703125,11.653716324356079C7.83389900703125,11.843267724356078,7.04077080703125,11.66763522435608,6.4406698070312505,11.17952942435608C6.35718030703125,11.12749122435608,6.328877207031249,11.01868652435608,6.37631150703125,10.93212722435608C6.427017907031249,10.84674282435608,6.53627660703125,10.817934324356079,6.62204410703125,10.86733082435608C7.22759530703125,11.33562682435608,8.14908740703125,11.59481072435608,8.82484820703125,11.161855924356079C9.115440407031251,10.97222832435608,9.24660250703125,10.612081724356079,9.14663840703125,10.27827712435608C9.025249007031249,9.97551272435608,8.78806260703125,9.73459172435608,8.48842910703125,9.609703824356078C8.137384907031251,9.427097524356078,7.78926560703125,9.33579322435608,7.41189150703125,9.159078324356079C7.08430480703125,9.03597042435608,6.81135870703125,8.79878302435608,6.64251950703125,8.490503524356079C6.47438290703125,8.088040124356079,6.56324930703125,7.623254024356079,6.86777380703125,7.312397224356079C7.45284750703125,6.682111024356079,8.49428030703125,6.788140524356079,9.15248870703125,7.250546724356079C9.339712607031249,7.383083624356079,9.15248870703125,7.698226724356079,8.971115107031249,7.5627444243560795C8.62411120703125,7.308727524356079,8.19499830703125,7.195201124356079,7.76878880703125,7.244656824356079C7.32120660703125,7.318288524356079,6.84729580703125,7.671719824356079,6.911654007031251,8.181249424356078C6.95260860703125,8.499338424356079,7.29195260703125,8.71139792435608,7.54938410703125,8.843935224356079C7.68687680703125,8.91756652435608,7.82144400703125,8.95880012435608,7.96771190703125,9.01770472435608C8.45917560703125,9.21798392435608,9.10860820703125,9.46833112435608,9.401144507031251,9.971970324356079C9.58334110703125,10.312328624356079,9.58223910703125,10.722357024356079,9.39822010703125,11.061716324356079L9.39236830703125,11.064665124356079Z" fill="#FFFFFF" fill-opacity="1" style="mix-blend-mode:passthrough"/></svg>